<?xml version="1.0" encoding="UTF-8"?>
<svg width="20px" height="20px" viewBox="0 0 20 20" version="1.1" xmlns="http://www.w3.org/2000/svg" xmlns:xlink="http://www.w3.org/1999/xlink">
    <!-- Generator: sketchtool 52.6 (67491) - http://www.bohemiancoding.com/sketch -->
    <title>F6FBAD11-9E72-47A0-B733-E91EE3A257D6</title>
    <desc>Created with sketchtool.</desc>
    <g id="desktop" stroke="none" stroke-width="1" fill="none" fill-rule="evenodd">
        <g id="index" transform="translate(-129.000000, -731.000000)" fill="#FFFFFF">
            <g id="icon/ig" transform="translate(129.000000, 731.000000)">
                <path d="M9.6358831,0.148829169 C7.04909144,0.148829169 6.7247311,0.159767405 5.70885069,0.206009744 C4.69501196,0.252138928 4.00266011,0.412780135 3.39677662,0.647650479 C2.77043866,0.890479334 2.23926505,1.21538268 1.70975502,1.74362408 C1.18024498,2.27190319 0.854561343,2.80180418 0.611149306,3.42664152 C0.375677083,4.03103567 0.214687886,4.72176646 0.168410108,5.73313846 C0.122056713,6.74662266 0.111092207,7.07020588 0.111092207,9.65079994 C0.111092207,12.2313563 0.122056713,12.5549395 0.168410108,13.5684237 C0.214687886,14.5797957 0.375677083,15.2705265 0.611149306,15.8749206 C0.854561343,16.499758 1.18024498,17.029659 1.70975502,17.5579381 C2.23926505,18.0861795 2.77043866,18.4110828 3.39677662,18.6539117 C4.00266011,18.888782 4.69501196,19.0494232 5.70885069,19.0955524 C6.7247311,19.1418325 7.04909144,19.152733 9.6358831,19.152733 C12.2226748,19.152733 12.5469973,19.1418325 13.5629155,19.0955524 C14.5767542,19.0494232 15.2691061,18.888782 15.8749896,18.6539117 C16.5013275,18.4110828 17.0325012,18.0861795 17.5620112,17.5579381 C18.0915212,17.029659 18.4172049,16.499758 18.6606169,15.8749206 C18.8960891,15.2705265 19.0570783,14.5797957 19.1033561,13.5684237 C19.1497095,12.5549395 19.1606362,12.2313563 19.1606362,9.65079994 C19.1606362,7.07020588 19.1497095,6.74662266 19.1033561,5.73313846 C19.0570783,4.72176646 18.8960891,4.03103567 18.6606169,3.42664152 C18.4172049,2.80180418 18.0915212,2.27190319 17.5620112,1.74362408 C17.0325012,1.21538268 16.5013275,0.890479334 15.8749896,0.647650479 C15.2691061,0.412780135 14.5767542,0.252138928 13.5629155,0.206009744 C12.5469973,0.159767405 12.2226748,0.148829169 9.6358831,0.148829169 M9.6358831,1.86088952 C12.1791192,1.86088952 12.4803407,1.87058306 13.4846894,1.91629734 C14.4133453,1.95854157 14.9176748,2.11333648 15.2533399,2.24346377 C15.6978939,2.4158353 16.0152218,2.62173817 16.348505,2.95426057 C16.6817882,3.28674525 16.8882234,3.60327518 17.0609711,4.04680182 C17.1914109,4.38162502 17.3465775,4.88474619 17.388961,5.81117712 C17.4347851,6.8131196 17.4444641,7.11365708 17.4444641,9.65079994 C17.4444641,12.1879051 17.4347851,12.4884426 17.388961,13.490385 C17.3465775,14.416816 17.1914109,14.9199371 17.0609711,15.2547603 C16.8882234,15.698287 16.6817882,16.0148169 16.348505,16.3473016 C16.0152218,16.679824 15.6978939,16.8857269 15.2533399,17.0580984 C14.9176748,17.1882257 14.4133453,17.3430206 13.4846894,17.3852648 C12.4804919,17.4309791 12.1792704,17.4406726 9.6358831,17.4406726 C7.09249576,17.4406726 6.79127431,17.4309791 5.78707677,17.3852648 C4.85842091,17.3430206 4.35405363,17.1882257 4.01842631,17.0580984 C3.5738723,16.8857269 3.25654437,16.679824 2.92326119,16.3473016 C2.58997801,16.0148169 2.38354282,15.698287 2.21075733,15.2547603 C2.08035532,14.9199371 1.92518866,14.416816 1.88280517,13.490385 C1.8369811,12.4884426 1.82730208,12.1879051 1.82730208,9.65079994 C1.82730208,7.11365708 1.8369811,6.8131196 1.88280517,5.81117712 C1.92518866,4.88474619 2.08035532,4.38162502 2.21075733,4.04680182 C2.38354282,3.60327518 2.58997801,3.28674525 2.92326119,2.95426057 C3.25654437,2.62173817 3.5738723,2.4158353 4.01842631,2.24346377 C4.35405363,2.11333648 4.85842091,1.95854157 5.78703897,1.91629734 C6.79142554,1.87058306 7.09264699,1.86088952 9.6358831,1.86088952" id="Fill-1"></path>
                <path d="M9.6358831,12.8180984 C7.88243171,12.8180984 6.4609402,11.4000503 6.4609402,9.65079994 C6.4609402,7.90151187 7.88243171,6.48346377 9.6358831,6.48346377 C11.3893345,6.48346377 12.8107882,7.90151187 12.8107882,9.65079994 C12.8107882,11.4000503 11.3893345,12.8180984 9.6358831,12.8180984 M9.6358831,4.77140343 C6.93460687,4.77140343 4.74476813,6.95595788 4.74476813,9.65079994 C4.74476813,12.3456043 6.93460687,14.5301587 9.6358831,14.5301587 C12.3371593,14.5301587 14.5269981,12.3456043 14.5269981,9.65079994 C14.5269981,6.95595788 12.3371593,4.77140343 9.6358831,4.77140343" id="Fill-4"></path>
                <path d="M15.8632046,4.57861512 C15.8632046,5.20835581 15.3514647,5.718832 14.7202494,5.718832 C14.0889963,5.718832 13.5772563,5.20835581 13.5772563,4.57861512 C13.5772563,3.94887443 14.0889963,3.43839824 14.7202494,3.43839824 C15.3514647,3.43839824 15.8632046,3.94887443 15.8632046,4.57861512" id="Fill-6"></path>
            </g>
        </g>
    </g>
</svg>