<?xml version="1.0" encoding="UTF-8"?>
<svg width="27px" height="50px" viewBox="0 0 27 50" version="1.1" xmlns="http://www.w3.org/2000/svg" xmlns:xlink="http://www.w3.org/1999/xlink">
    <!-- Generator: sketchtool 52.6 (67491) - http://www.bohemiancoding.com/sketch -->
    <title>C057998F-76DB-437F-8AB4-84FA2F101B08</title>
    <desc>Created with sketchtool.</desc>
    <g id="desktop" stroke="none" stroke-width="1" fill="none" fill-rule="evenodd">
        <g id="index" transform="translate(-39.000000, -25.000000)">
            <g id="logo" transform="translate(39.000000, 26.000000)">
                <path d="M2,1.5 L21,1.5" id="Line-3" stroke="#FFFFFF" stroke-width="4" stroke-linecap="square" fill-rule="nonzero"></path>
                <path d="M11.016,48.384 C9.2559912,48.384 7.48000896,48.3280006 5.688,48.216 C3.89599104,48.1039994 2.32800672,47.8720018 0.984,47.52 L0.984,15.216 C1.68800352,15.0879994 2.439996,14.9680006 3.24,14.856 C4.040004,14.7439994 4.85599584,14.6560003 5.688,14.592 C6.52000416,14.5279997 7.34399592,14.4800002 8.16,14.448 C8.97600408,14.4159998 9.75199632,14.4 10.488,14.4 C12.5040101,14.4 14.3759914,14.5519985 16.104,14.856 C17.8320086,15.1600015 19.3279937,15.6639965 20.592,16.368 C21.8560063,17.0720035 22.8399965,17.9999942 23.544,19.152 C24.2480035,20.3040058 24.6,21.7279915 24.6,23.424 C24.6,24.9920078 24.2240038,26.3359944 23.472,27.456 C22.7199962,28.5760056 21.6720067,29.4719966 20.328,30.144 C22.3440101,30.8160034 23.8319952,31.8079934 24.792,33.12 C25.7520048,34.4320066 26.232,36.0959899 26.232,38.112 C26.232,41.5360171 24.9840125,44.1039914 22.488,45.816 C19.9919875,47.5280086 16.1680258,48.384 11.016,48.384 Z M6.936,33.024 L6.936,43.152 C7.60800336,43.2160003 8.32799616,43.2639998 9.096,43.296 C9.86400384,43.3280002 10.5679968,43.344 11.208,43.344 C12.4560062,43.344 13.6159946,43.2640008 14.688,43.104 C15.7600054,42.9439992 16.6879961,42.664002 17.472,42.264 C18.2560039,41.863998 18.8799977,41.3280034 19.344,40.656 C19.8080023,39.9839966 20.04,39.1200053 20.04,38.064 C20.04,36.1759906 19.3520069,34.8640037 17.976,34.128 C16.5999931,33.3919963 14.6960122,33.024 12.264,33.024 L6.936,33.024 Z M6.936,28.272 L11.208,28.272 C13.5120115,28.272 15.3199934,27.9440033 16.632,27.288 C17.9440066,26.6319967 18.6,25.4560085 18.6,23.76 C18.6,22.159992 17.9200068,21.0240034 16.56,20.352 C15.1999932,19.6799966 13.4320109,19.344 11.256,19.344 C10.3279954,19.344 9.5040036,19.3599998 8.784,19.392 C8.0639964,19.4240002 7.44800256,19.4719997 6.936,19.536 L6.936,28.272 Z" id="B" fill="#FFFFFF"></path>
            </g>
        </g>
    </g>
</svg>