<?xml version="1.0" encoding="UTF-8"?>
<svg width="22px" height="17px" viewBox="0 0 22 17" version="1.1" xmlns="http://www.w3.org/2000/svg" xmlns:xlink="http://www.w3.org/1999/xlink">
    <!-- Generator: sketchtool 52.6 (67491) - http://www.bohemiancoding.com/sketch -->
    <title>B4CDBADC-03AC-4CEF-8DE9-A849CA94BA7B</title>
    <desc>Created with sketchtool.</desc>
    <g id="desktop" stroke="none" stroke-width="1" fill="none" fill-rule="evenodd">
        <g id="index" transform="translate(-224.000000, -734.000000)" fill="#FFFFFF" fill-rule="nonzero">
            <g id="youtube" transform="translate(224.000000, 734.000000)">
                <path d="M21.8121419,3.98460998 C21.6897445,2.39265588 20.8165648,0.38512318 19.0220945,0.313351645 C14.0113274,-0.0528900018 8.0751162,-0.153021999 2.97357866,0.313351645 C1.39084859,0.506184621 0.305928718,2.60190318 0.187684709,4.19385728 C-0.0625615695,7.53772277 -0.0625615695,9.4406553 0.187684709,12.7845208 C0.307313215,14.3764749 1.36475962,16.4841866 2.97634756,16.7053803 C8.13837004,17.0716218 14.0457233,17.1239219 19.0248634,16.7053803 C20.586956,16.4109102 21.6938979,14.3764749 21.8135264,12.7845208 C22.0623881,9.43915026 22.0623881,7.32847538 21.8121419,3.98460998 Z M8.24835038,12.7307157 L8.24835038,4.15797151 L15.1237207,8.44507263 L8.24835038,12.7307157 Z" id="Shape"></path>
            </g>
        </g>
    </g>
</svg>